<?xml version="1.0" standalone="no"?>
<!DOCTYPE svg PUBLIC "-//W3C//DTD SVG 20010904//EN"
 "http://www.w3.org/TR/2001/REC-SVG-20010904/DTD/svg10.dtd">
<svg version="1.0" xmlns="http://www.w3.org/2000/svg"
 width="225.000000pt" height="225.000000pt" viewBox="0 0 225.000000 225.000000"
 preserveAspectRatio="xMidYMid meet">
<metadata>
Created by potrace 1.14, written by Peter Selinger 2001-2017
</metadata>
<g transform="translate(0.000000,225.000000) scale(0.100000,-0.100000)"
fill="#000000" stroke="none">
<path d="M425 2230 c-22 -11 -51 -36 -65 -57 l-25 -37 0 -1011 0 -1011 25 -37
c14 -21 43 -46 66 -57 39 -19 62 -20 699 -20 637 0 660 1 699 20 23 11 52 36
66 57 l25 37 3 775 2 776 -251 293 -250 292 -477 0 c-456 0 -479 -1 -517 -20z
m905 -282 c0 -195 3 -228 19 -263 42 -91 83 -105 306 -105 l175 0 0 -719 0
-720 -24 -28 -24 -28 -655 0 -655 0 -26 24 -26 24 0 987 c0 975 0 988 20 1013
11 14 30 28 43 30 12 2 208 5 435 6 l412 1 0 -222z m265 -35 c93 -109 178
-208 189 -220 l19 -23 -167 0 c-230 0 -216 -15 -216 245 0 107 2 195 4 195 2
0 79 -89 171 -197z"/>
<path d="M580 1875 l0 -45 295 0 295 0 0 45 0 45 -295 0 -295 0 0 -45z"/>
<path d="M580 1625 l0 -45 210 0 210 0 0 45 0 45 -210 0 -210 0 0 -45z"/>
<path d="M580 1375 l0 -45 545 0 545 0 0 45 0 45 -545 0 -545 0 0 -45z"/>
<path d="M580 1125 l0 -45 420 0 420 0 0 45 0 45 -420 0 -420 0 0 -45z"/>
<path d="M580 875 l0 -45 545 0 545 0 0 45 0 45 -545 0 -545 0 0 -45z"/>
<path d="M580 625 l0 -45 378 2 377 3 0 40 0 40 -377 3 -378 2 0 -45z"/>
<path d="M580 375 l0 -45 545 0 545 0 0 45 0 45 -545 0 -545 0 0 -45z"/>
</g>
</svg>
